<svg width="20" height="24" viewBox="0 0 20 24" fill="none" xmlns="http://www.w3.org/2000/svg">
<path d="M14.2657 24C13.2144 24 12.2004 23.4135 11.712 22.4157L10.2984 19.769L9.49653 21.2996C9.476 21.3389 9.4526 21.3767 9.42673 21.4127C8.90046 22.143 8.03457 22.4025 7.39351 22.4025C7.38835 22.4025 7.38319 22.4025 7.37799 22.4025C6.66155 22.3978 5.94815 22.0903 5.42085 21.559C4.8732 21.0071 4.57165 20.2746 4.57165 19.4962V7.35762C4.57165 6.25047 5.19547 5.27302 6.19959 4.80671C7.19419 4.3448 8.33125 4.49161 9.17473 5.18869L15.3504 9.78769C15.7657 10.0969 15.8516 10.6843 15.5424 11.0995C15.2331 11.5148 14.6458 11.6007 14.2306 11.2915L8.03406 6.67699C8.01873 6.66555 8.00373 6.65369 7.98911 6.64132C7.56502 6.28319 7.11675 6.44819 6.98935 6.5073C6.86203 6.56641 6.44672 6.80243 6.44672 7.35762V19.4963C6.44672 20.1003 6.94402 20.5246 7.39041 20.5275C7.39182 20.5275 7.39332 20.5275 7.39473 20.5275C7.57716 20.5275 7.77774 20.452 7.87768 20.3495L9.4601 17.3289C9.62126 17.0212 9.93945 16.8279 10.2868 16.8265C10.2881 16.8265 10.2893 16.8265 10.2906 16.8265C10.6365 16.8265 10.9544 17.017 11.1175 17.3223L13.3746 21.5484C13.381 21.5603 13.3871 21.5723 13.3929 21.5845C13.6179 22.0534 14.185 22.2574 14.657 22.0389C14.8919 21.9302 15.0692 21.7362 15.1563 21.4924C15.2407 21.2561 15.2299 21.0022 15.1262 20.7747L12.8483 16.7211C12.6851 16.4308 12.6882 16.0758 12.8564 15.7884C13.0246 15.501 13.3326 15.3244 13.6656 15.3244H16.8797C17.4237 15.2966 17.6409 14.8682 17.6948 14.7366C17.7501 14.6017 17.9003 14.1292 17.5121 13.7175C17.157 13.3408 17.1744 12.7475 17.5511 12.3922C17.9278 12.037 18.5212 12.0545 18.8764 12.4312C19.6456 13.2471 19.8577 14.4028 19.4299 15.4473C19.0045 16.4861 18.0484 17.1572 16.935 17.1987C16.9233 17.1992 16.9117 17.1994 16.9 17.1994H15.2678L16.777 19.885C16.7863 19.9015 16.7951 19.9183 16.8033 19.9353C17.1376 20.6246 17.1797 21.4016 16.922 22.1231C16.6643 22.8446 16.1395 23.4191 15.4442 23.7407C15.0634 23.9166 14.6619 24 14.2657 24ZM5.63169 3.68169C6.08573 3.43274 6.2519 2.86287 6.00295 2.40889L5.20606 0.955746C4.95711 0.501758 4.38734 0.335584 3.9333 0.58454C3.47926 0.833495 3.31309 1.40336 3.56205 1.85735L4.35893 3.31049C4.52946 3.62146 4.85047 3.79738 5.18178 3.79738C5.33413 3.79738 5.48872 3.76016 5.63169 3.68169ZM3.64919 5.81364C3.85671 5.33926 3.64038 4.78646 3.16604 4.57894L1.66603 3.92268C1.19165 3.71512 0.638893 3.93149 0.431329 4.40583C0.223811 4.88021 0.440141 5.43301 0.914474 5.64053L2.41449 6.29678C2.53679 6.35032 2.66429 6.37563 2.78977 6.37563C3.15095 6.37558 3.49516 6.16567 3.64919 5.81364ZM9.49226 2.78117L10.0079 1.23428C10.1716 0.743073 9.90617 0.212114 9.41496 0.0484251C8.92394 -0.115405 8.3928 0.150145 8.22911 0.641353L7.71348 2.18824C7.54974 2.67945 7.8152 3.21041 8.30641 3.3741C8.40475 3.40691 8.50469 3.42247 8.60299 3.42247C8.99548 3.42247 9.36134 3.17399 9.49226 2.78117ZM11.9734 5.15996L13.239 4.22245C13.6551 3.91424 13.7425 3.32713 13.4343 2.91106C13.1261 2.495 12.539 2.40757 12.123 2.71573L10.8573 3.65324C10.4413 3.96145 10.3538 4.54856 10.662 4.96463C10.8459 5.21293 11.1292 5.34418 11.4161 5.34418C11.61 5.34418 11.8056 5.28423 11.9734 5.15996ZM1.73222 10.4334L3.13848 9.87085C3.61924 9.67857 3.85305 9.13294 3.66077 8.65223C3.46844 8.17143 2.92276 7.93761 2.44215 8.12994L1.03588 8.69245C0.555127 8.88473 0.321312 9.43036 0.513595 9.91107C0.660222 10.2776 1.01226 10.5007 1.38431 10.5007C1.50023 10.5007 1.61803 10.479 1.73222 10.4334Z" fill="white"/>
</svg>
