<svg width="44" height="48" viewBox="0 0 44 48" fill="none" xmlns="http://www.w3.org/2000/svg">
<path d="M43.0996 7.28081L36.4647 0.646125C36.048 0.2295 35.494 0 34.9047 0H6.97001C5.7536 0 4.76388 0.989719 4.76388 2.20613V24.0484H3.21251C1.58163 24.0484 0.254883 25.3752 0.254883 27.006V40.5332C0.254883 42.1641 1.58163 43.4909 3.21251 43.4909H26.5094C27.7259 43.4909 28.7155 42.5012 28.7155 41.2848V30.7637C28.7155 29.5472 27.7258 28.5575 26.5094 28.5575H3.21251C2.35704 28.5575 1.66113 27.8616 1.66113 27.0061C1.66113 26.1506 2.35704 25.4547 3.21251 25.4547H4.76388V26.2549C4.76388 26.6432 5.07869 26.958 5.46701 26.958C5.85532 26.958 6.17013 26.6432 6.17013 26.2549V2.20613C6.17013 1.76503 6.52901 1.40625 6.97001 1.40625H34.0728V8.21822C34.0728 9.02034 34.7253 9.67294 35.5275 9.67294H42.3394V45.7939C42.3394 46.235 41.9806 46.5938 41.5396 46.5938H6.97001C6.52891 46.5938 6.17013 46.235 6.17013 45.7939C6.17013 45.4056 5.85532 45.0907 5.46701 45.0907C5.07869 45.0907 4.76388 45.4056 4.76388 45.7939C4.76388 47.0104 5.7536 48 6.97001 48H41.5396C42.7561 48 43.7457 47.0103 43.7457 45.7939V8.84081C43.7458 8.25159 43.5163 7.69753 43.0996 7.28081ZM3.21251 29.9637H26.5094C26.9505 29.9637 27.3093 30.3226 27.3093 30.7637V41.2849C27.3093 41.726 26.9504 42.0847 26.5094 42.0847H3.21251C2.35704 42.0847 1.66113 41.3888 1.66113 40.5333V29.5233C2.11235 29.8026 2.64391 29.9637 3.21251 29.9637ZM35.4791 8.21822V1.64934L42.0966 8.26669H35.5275C35.5009 8.26669 35.4791 8.24494 35.4791 8.21822Z" fill="white"/>
<path d="M20.1807 39.7113C20.569 39.7113 20.8838 39.3965 20.8838 39.0082V36.6707H22.4073C22.7956 36.6707 23.1104 36.3559 23.1104 35.9676C23.1104 35.5793 22.7956 35.2644 22.4073 35.2644H20.8838V33.7432H22.5995C22.9878 33.7432 23.3026 33.4284 23.3026 33.04C23.3026 32.6516 22.9878 32.3369 22.5995 32.3369H20.1807C19.7924 32.3369 19.4775 32.6516 19.4775 33.04V39.0081C19.4775 39.3964 19.7924 39.7113 20.1807 39.7113Z" fill="white"/>
<path d="M12.7879 39.4403C12.9196 39.5711 13.0978 39.6444 13.2833 39.6444H13.2859C13.3359 39.6442 14.5139 39.6397 14.9844 39.6315C16.7219 39.6011 17.983 38.0841 17.983 36.0242C17.983 33.8588 16.7536 32.4039 14.9238 32.4039H13.2715C13.0847 32.4039 12.9058 32.4782 12.7739 32.6104C12.642 32.7426 12.568 32.9217 12.5684 33.1084V33.113V33.1131V38.8465C12.5684 38.8948 12.5732 38.942 12.5825 38.9875C12.5938 39.1581 12.666 39.3193 12.7879 39.4403ZM14.9238 33.8102C16.1426 33.8102 16.5767 34.9538 16.5767 36.0242C16.5767 37.5253 15.7647 38.2115 14.9598 38.2254C14.7361 38.2294 14.337 38.2325 13.984 38.2346C13.9817 37.5448 13.977 34.5277 13.9758 33.8102H14.9238Z" fill="white"/>
<path d="M6.94629 39.7334C7.3346 39.7334 7.64941 39.4187 7.64941 39.0303V37.1181C7.99854 37.1163 8.39547 37.1145 8.62029 37.1145C9.96185 37.1145 11.0533 36.038 11.0533 34.7148C11.0533 33.3915 9.96185 32.3149 8.62029 32.3149H6.94629C6.75944 32.3149 6.58029 32.3894 6.44829 32.5217C6.31685 32.6535 6.24326 32.8321 6.24326 33.0181H6.24316V39.0302C6.24316 39.4187 6.55798 39.7334 6.94629 39.7334ZM8.62029 33.7213C9.17688 33.7213 9.64703 34.1763 9.64703 34.7148C9.64703 35.2533 9.17688 35.7083 8.62029 35.7083C8.39697 35.7083 8.00501 35.7101 7.65719 35.7119C7.65532 35.3527 7.65251 34.0971 7.65148 33.7214H8.62029V33.7213Z" fill="white"/>
<path d="M20.1207 20.387C18.3926 20.9325 16.619 21.6874 15.6729 22.664C14.8922 23.4698 14.7507 24.4047 15.2846 25.229C15.647 25.7884 16.1451 26.0808 16.7051 26.0808C16.9201 26.0808 17.1443 26.0377 17.3733 25.9501C18.1995 25.6342 19.0918 24.7354 20.1012 23.2023C20.4271 22.7074 20.757 22.1574 21.0854 21.5624C21.205 21.5272 21.3268 21.4922 21.4515 21.4574C23.4358 20.9022 25.6808 20.4992 27.651 20.3309C28.852 21.4922 30.0935 22.3971 31.1518 22.644C32.3161 22.9155 33.2392 22.3831 33.6204 21.2197C33.8514 20.515 33.5855 19.8505 32.9091 19.4422C32.2136 19.0223 31.0051 18.8195 29.3179 18.8388C28.9585 18.843 28.5792 18.8576 28.1845 18.8821C27.4266 18.1004 26.638 17.1661 25.8785 16.1344C25.2901 15.3352 24.7642 14.5354 24.3194 13.7752C24.3678 13.6086 24.4137 13.4443 24.4573 13.2828C24.938 11.5004 25.1095 10.1356 24.9669 9.22646C24.7609 7.91349 23.9135 7.72702 23.5587 7.70789C22.3508 7.64255 21.5371 8.25202 21.3823 9.33811C21.2593 10.2009 21.5495 11.388 22.2446 12.8662C22.4099 13.2176 22.5953 13.5797 22.7988 13.9496C22.723 14.193 22.6407 14.4462 22.5517 14.7097C21.9035 16.6273 21.0256 18.6706 20.1207 20.387ZM16.7441 24.6708C16.694 24.6771 16.6094 24.6877 16.4649 24.4645C16.3472 24.2828 16.3408 24.1457 16.4412 23.9586C16.676 23.521 17.4775 22.9069 19.0284 22.2726C17.9459 23.9515 17.137 24.6218 16.7441 24.6708ZM32.2958 20.734C32.2947 20.7427 32.2919 20.7583 32.2841 20.7819C32.1085 21.3178 31.8726 21.3683 31.4712 21.2746C30.9813 21.1604 30.359 20.7984 29.6649 20.2444C31.5444 20.2594 32.2 20.598 32.2958 20.734ZM22.7744 9.53667C22.8031 9.33567 22.8353 9.10964 23.3702 9.10964C23.4039 9.10964 23.4396 9.11058 23.4773 9.11236C23.6374 9.30746 23.7198 10.1755 23.3493 11.8934C22.9129 10.8926 22.6997 10.0612 22.7744 9.53667ZM23.7535 15.5371C24.0622 16.0113 24.3941 16.4903 24.746 16.9682C25.2507 17.6539 25.8209 18.3658 26.424 19.0453C25.7263 19.1295 25.0067 19.2381 24.2868 19.3688C23.7997 19.4572 22.9504 19.624 21.9563 19.872C22.1768 19.4147 22.3942 18.9408 22.6069 18.4535C23.0297 17.4852 23.4186 16.4943 23.7535 15.5371Z" fill="white"/>
</svg>
