<svg width="200" height="56" viewBox="0 0 200 56" fill="none" xmlns="http://www.w3.org/2000/svg">
<path fill-rule="evenodd" clip-rule="evenodd" d="M0 0.612335H107.299L133.333 9.91116V55.5401H0V0.612335Z" fill="black"/>
<path fill-rule="evenodd" clip-rule="evenodd" d="M200 0.612335H159.368L133.334 9.91116V55.5401H200C200 37.3118 200 30.3219 200 0.612335Z" fill="#F74435"/>
<path d="M145.913 20.4981V19.3947C145.913 18.4614 145.359 18.0434 144.489 18.0434C143.993 18.0434 143.551 18.1649 143.308 18.2475V18.8794C143.585 18.7579 143.964 18.6413 144.421 18.6413C144.946 18.6413 145.233 18.9135 145.233 19.2975V19.4044C144.99 19.3509 144.693 19.3121 144.431 19.3121C143.789 19.3121 143.055 19.5551 143.055 20.3474C143.055 20.9842 143.575 21.2904 144.134 21.2904C144.615 21.2904 144.995 21.1349 145.296 20.8918C145.403 21.1446 145.631 21.2515 145.913 21.2515C146.069 21.2515 146.219 21.2272 146.351 21.1738V20.678C146.288 20.6974 146.215 20.7169 146.147 20.7169C146.015 20.7217 145.913 20.6731 145.913 20.4981ZM144.557 19.7981C144.776 19.7981 145.038 19.837 145.223 19.8759V20.396C144.98 20.6391 144.659 20.7606 144.329 20.7606C144.022 20.7606 143.75 20.605 143.75 20.3037C143.755 19.9197 144.163 19.7981 144.557 19.7981ZM147.527 21.2127V19.1225L148.402 20.4738H148.815L149.695 19.1225V21.2127H150.356V18.1309H149.661L148.606 19.7544L147.561 18.1309H146.866V21.2127H147.527ZM152.602 20.4544L151.562 18.1309H150.828L152.291 21.2418L152.228 21.3974C152.048 21.8786 151.795 22.1168 151.464 22.1168C151.362 22.1168 151.251 22.1022 151.148 22.073V22.6563C151.285 22.6904 151.421 22.7098 151.552 22.7098C152.019 22.7098 152.456 22.4376 152.791 21.6356L154.235 18.1357H153.516L152.602 20.4544ZM155.363 18.6121V18.1309H154.75V22.6272H155.436V20.8141C155.65 21.0571 156.009 21.2953 156.549 21.2953C157.472 21.2953 158.08 20.5564 158.08 19.6718C158.08 18.7871 157.477 18.0482 156.549 18.0482C155.975 18.0434 155.606 18.3156 155.363 18.6121ZM157.38 19.6718C157.38 20.2745 156.981 20.6925 156.422 20.6925C155.946 20.6925 155.586 20.3863 155.441 20.0461V19.2926C155.586 18.9572 155.946 18.651 156.422 18.651C156.981 18.6461 157.38 19.0642 157.38 19.6718ZM158.556 19.6961C158.556 20.7946 159.397 21.2953 160.219 21.2953C160.613 21.2953 160.943 21.2224 161.24 21.0814V20.4446C160.997 20.5856 160.666 20.6828 160.34 20.6828C159.786 20.6828 159.256 20.3669 159.256 19.6669C159.256 18.9426 159.81 18.651 160.355 18.651C160.671 18.651 160.987 18.7482 161.21 18.9086V18.2767C160.938 18.1163 160.608 18.0385 160.258 18.0385C159.436 18.0434 158.556 18.544 158.556 19.6961ZM162.615 21.2127V19.9343H163.111L164.127 21.2127H164.919L163.68 19.6572L164.798 18.126H164.015L163.13 19.3461H162.625V18.126H161.94V21.2078H162.615V21.2127ZM165.955 21.2127L167.607 19.1954V21.2127H168.293V18.1309H167.7L166.047 20.1481V18.1309H165.362V21.2127H165.955ZM171.559 17.4358V16.8768C171.233 17.0809 170.942 17.149 170.621 17.149C170.3 17.149 170.009 17.0858 169.683 16.8768V17.4358C169.965 17.6302 170.276 17.6983 170.621 17.6983C170.966 17.6983 171.277 17.6253 171.559 17.4358ZM169.746 21.2127L171.399 19.1954V21.2127H172.084V18.1309H171.491L169.838 20.1481V18.1309H169.158V21.2127H169.746ZM143.094 26.7395C143.094 27.804 143.906 28.363 144.766 28.363C145.631 28.363 146.438 27.804 146.438 26.7395C146.438 25.6749 145.636 25.1159 144.766 25.1159C143.901 25.1111 143.094 25.6701 143.094 26.7395ZM145.733 26.7395C145.733 27.3422 145.335 27.7359 144.761 27.7359C144.183 27.7359 143.784 27.3422 143.784 26.7395C143.784 26.1367 144.183 25.743 144.761 25.743C145.335 25.743 145.733 26.1318 145.733 26.7395ZM150.186 26.8464C150.186 25.9131 149.52 25.3492 148.742 25.3492C148.266 25.3492 147.867 25.5826 147.663 25.8888C147.756 25.534 147.926 25.1354 148.319 24.9118C148.976 24.5472 149.481 24.693 149.914 24.3674V23.7014C149.476 24.134 148.801 23.8959 147.916 24.4403C147.362 24.7854 146.963 25.4659 146.963 26.5353C146.963 27.7748 147.663 28.3678 148.582 28.3678C149.51 28.363 150.186 27.8234 150.186 26.8464ZM147.653 26.861C147.653 26.4284 147.974 25.9471 148.567 25.9471C149.185 25.9471 149.486 26.3846 149.486 26.861C149.486 27.3373 149.185 27.7748 148.567 27.7748C147.969 27.77 147.653 27.3325 147.653 26.861ZM152.033 25.7819H153.073V28.2803H153.759V25.1986H151.382C151.323 26.7297 151.182 27.7554 150.662 27.7554C150.599 27.7554 150.536 27.7408 150.463 27.7165V28.256C150.619 28.3144 150.76 28.3387 150.886 28.3387C151.712 28.3387 151.946 27.2693 152.033 25.7819ZM157.254 27.5658V26.4624C157.254 25.5291 156.7 25.1111 155.829 25.1111C155.334 25.1111 154.891 25.2326 154.648 25.3152V25.9471C154.925 25.8256 155.304 25.709 155.761 25.709C156.286 25.709 156.573 25.9763 156.573 26.3652V26.4721C156.33 26.4186 156.034 26.3798 155.771 26.3798C155.129 26.3798 154.395 26.6228 154.395 27.4151C154.395 28.0519 154.916 28.3581 155.475 28.3581C155.956 28.3581 156.335 28.2026 156.636 27.9595C156.743 28.2123 156.972 28.3192 157.254 28.3192C157.409 28.3192 157.56 28.2949 157.691 28.2415V27.7457C157.628 27.7651 157.555 27.7845 157.487 27.7845C157.356 27.7894 157.254 27.7408 157.254 27.5658ZM155.897 26.8658C156.116 26.8658 156.379 26.9047 156.563 26.9436V27.4637C156.32 27.7068 156 27.8283 155.669 27.8283C155.363 27.8283 155.091 27.6727 155.091 27.3714C155.095 26.9874 155.504 26.8658 155.897 26.8658ZM158.012 26.7638C158.012 27.8623 158.853 28.363 159.674 28.363C160.068 28.363 160.399 28.2901 160.695 28.1491V27.5123C160.452 27.6533 160.122 27.7505 159.796 27.7505C159.242 27.7505 158.712 27.4346 158.712 26.7346C158.712 26.0103 159.266 25.7187 159.81 25.7187C160.126 25.7187 160.442 25.8159 160.666 25.9763V25.3444C160.394 25.184 160.063 25.1062 159.713 25.1062C158.892 25.1111 158.012 25.6117 158.012 26.7638ZM162.814 28.2803V25.8013H163.874V25.1986H161.06V25.8013H162.124V28.2803H162.814ZM165.104 28.2803V27.0408H166.645V28.2803H167.33V25.1986H166.645V26.4381H165.104V25.1986H164.419V28.2803H165.104ZM168.001 26.7395C168.001 27.804 168.813 28.363 169.673 28.363C170.538 28.363 171.345 27.804 171.345 26.7395C171.345 25.6749 170.543 25.1159 169.673 25.1159C168.808 25.1111 168.001 25.6701 168.001 26.7395ZM170.64 26.7395C170.64 27.3422 170.242 27.7359 169.668 27.7359C169.09 27.7359 168.691 27.3422 168.691 26.7395C168.691 26.1367 169.09 25.743 169.668 25.743C170.242 25.743 170.64 26.1318 170.64 26.7395ZM174.412 24.5035V23.9445C174.087 24.1486 173.795 24.2167 173.474 24.2167C173.154 24.2167 172.862 24.1535 172.536 23.9445V24.5035C172.818 24.6979 173.129 24.7659 173.474 24.7659C173.819 24.7659 174.131 24.693 174.412 24.5035ZM172.599 28.2803L174.252 26.2631V28.2803H174.937V25.1986H174.344L172.692 27.2158V25.1986H172.006V28.2803H172.599ZM143.658 36.1744V35.3432H146.137V36.1744H146.783V34.7793H146.326V32.2614H143.915C143.93 33.3356 143.799 34.1182 143.429 34.7793H143.006V36.1744H143.658ZM144.562 32.8301H145.636V34.7842H144.154C144.411 34.2349 144.538 33.6565 144.562 32.8301ZM147.158 33.8023C147.158 34.8668 147.969 35.4258 148.83 35.4258C149.695 35.4258 150.502 34.8668 150.502 33.8023C150.502 32.7378 149.7 32.1788 148.83 32.1788C147.969 32.1788 147.158 32.7378 147.158 33.8023ZM149.797 33.8023C149.797 34.405 149.399 34.7988 148.825 34.7988C148.246 34.7988 147.848 34.405 147.848 33.8023C147.848 33.1995 148.246 32.8058 148.825 32.8058C149.399 32.8107 149.797 33.1995 149.797 33.8023ZM151.829 35.348V33.2579L152.704 34.6092H153.117L153.997 33.2579V35.348H154.658V32.2663H153.963L152.908 33.8898L151.863 32.2663H151.168V35.348H151.829ZM157.72 35.348V34.1085H159.261V35.348H159.947V32.2663H159.261V33.5058H157.72V32.2663H157.035V35.348H157.72ZM163.437 34.6335V33.5301C163.437 32.5968 162.883 32.1788 162.012 32.1788C161.517 32.1788 161.074 32.3003 160.831 32.3829V33.0148C161.108 32.8933 161.487 32.7766 161.944 32.7766C162.469 32.7766 162.756 33.0488 162.756 33.4329V33.5398C162.513 33.4863 162.217 33.4474 161.954 33.4474C161.312 33.4474 160.578 33.6905 160.578 34.4828C160.578 35.1196 161.099 35.4258 161.658 35.4258C162.139 35.4258 162.518 35.2703 162.819 35.0272C162.926 35.28 163.155 35.3869 163.437 35.3869C163.592 35.3869 163.743 35.3626 163.874 35.3091V34.8133C163.811 34.8328 163.738 34.8522 163.67 34.8522C163.544 34.8571 163.437 34.8085 163.437 34.6335ZM162.085 33.9335C162.304 33.9335 162.567 33.9724 162.751 34.0113V34.5314C162.508 34.7745 162.187 34.896 161.857 34.896C161.551 34.896 161.278 34.7404 161.278 34.4391C161.278 34.055 161.692 33.9335 162.085 33.9335ZM165.002 32.7426V32.2614H164.389V36.7577H165.075V34.9446C165.289 35.1876 165.648 35.4258 166.188 35.4258C167.111 35.4258 167.719 34.687 167.719 33.8023C167.719 32.9176 167.116 32.1788 166.188 32.1788C165.609 32.1788 165.245 32.451 165.002 32.7426ZM167.019 33.8023C167.019 34.405 166.621 34.8231 166.062 34.8231C165.585 34.8231 165.225 34.5168 165.08 34.1766V33.4231C165.225 33.0877 165.585 32.7815 166.062 32.7815C166.621 32.7815 167.019 33.1995 167.019 33.8023ZM168.191 33.8023C168.191 34.8668 169.002 35.4258 169.863 35.4258C170.728 35.4258 171.535 34.8668 171.535 33.8023C171.535 32.7378 170.733 32.1788 169.863 32.1788C169.002 32.1788 168.191 32.7378 168.191 33.8023ZM170.835 33.8023C170.835 34.405 170.436 34.7988 169.863 34.7988C169.284 34.7988 168.886 34.405 168.886 33.8023C168.886 33.1995 169.284 32.8058 169.863 32.8058C170.436 32.8107 170.835 33.1995 170.835 33.8023ZM172.497 36.1744V35.3432H174.976V36.1744H175.623V34.7793H175.166V32.2614H172.755C172.77 33.3356 172.638 34.1182 172.269 34.7793H171.846V36.1744H172.497ZM173.401 32.8301H174.476V34.7842H172.993C173.251 34.2349 173.377 33.6565 173.401 32.8301ZM176.945 35.348V34.1085H178.486V35.348H179.171V32.2663H178.486V33.5058H176.945V32.2663H176.26V35.348H176.945ZM179.842 33.8023C179.842 34.8668 180.654 35.4258 181.514 35.4258C182.379 35.4258 183.186 34.8668 183.186 33.8023C183.186 32.7378 182.384 32.1788 181.514 32.1788C180.649 32.1788 179.842 32.7378 179.842 33.8023ZM182.482 33.8023C182.482 34.405 182.083 34.7988 181.509 34.7988C180.931 34.7988 180.532 34.405 180.532 33.8023C180.532 33.1995 180.931 32.8058 181.509 32.8058C182.083 32.8107 182.482 33.1995 182.482 33.8023ZM184.538 35.348V32.869H186.151V32.2663H183.852V35.348H184.538ZM186.404 33.8023C186.404 34.8668 187.216 35.4258 188.076 35.4258C188.942 35.4258 189.749 34.8668 189.749 33.8023C189.749 32.7378 188.946 32.1788 188.076 32.1788C187.216 32.1788 186.404 32.7378 186.404 33.8023ZM189.049 33.8023C189.049 34.405 188.65 34.7988 188.076 34.7988C187.498 34.7988 187.099 34.405 187.099 33.8023C187.099 33.1995 187.498 32.8058 188.076 32.8058C188.65 32.8107 189.049 33.1995 189.049 33.8023ZM144.718 42.4109V39.9318H145.777V39.3291H142.963V39.9318H144.027V42.4109H144.718ZM148.13 42.4109C148.844 42.4109 149.146 42.0366 149.146 41.5651C149.146 41.1859 148.908 40.9429 148.621 40.8505C148.883 40.7339 149.058 40.4908 149.058 40.1506C149.058 39.6693 148.703 39.3291 148.081 39.3291H146.322V42.4109H148.13ZM147.002 41.1033H147.974C148.212 41.1033 148.451 41.1859 148.451 41.5019C148.451 41.7984 148.246 41.8956 147.965 41.8956H147.007V41.1033H147.002ZM147.002 39.8492H147.921C148.135 39.8492 148.358 39.9415 148.358 40.2429C148.358 40.52 148.164 40.6172 147.921 40.6172H147.002V39.8492ZM149.646 40.87C149.646 41.9345 150.458 42.4935 151.319 42.4935C152.184 42.4935 152.991 41.9345 152.991 40.87C152.991 39.8054 152.189 39.2464 151.319 39.2464C150.453 39.2464 149.646 39.8054 149.646 40.87ZM152.286 40.87C152.286 41.4727 151.887 41.8665 151.314 41.8665C150.735 41.8665 150.337 41.4727 150.337 40.87C150.337 40.2672 150.735 39.8735 151.314 39.8735C151.887 39.8735 152.286 40.2672 152.286 40.87ZM154.264 39.8103V39.3291H153.652V43.8254H154.337V42.0123C154.551 42.2553 154.911 42.4935 155.45 42.4935C156.374 42.4935 156.981 41.7547 156.981 40.87C156.981 39.9853 156.379 39.2464 155.45 39.2464C154.877 39.2464 154.507 39.5138 154.264 39.8103ZM156.281 40.87C156.281 41.4727 155.883 41.8908 155.324 41.8908C154.848 41.8908 154.488 41.5845 154.342 41.2443V40.4908C154.488 40.1554 154.848 39.8492 155.324 39.8492C155.883 39.8492 156.281 40.2672 156.281 40.87ZM160.209 42.4109V39.3291H159.524V40.8214C159.32 40.8991 159.12 40.938 158.863 40.938C158.43 40.938 158.158 40.8019 158.158 40.3547V39.3339H157.472V40.4131C157.472 41.1908 157.978 41.5456 158.668 41.5456C159.013 41.5456 159.266 41.4922 159.529 41.3998V42.4206H160.209V42.4109ZM160.875 40.87C160.875 41.9539 161.677 42.4935 162.62 42.4935C163.053 42.4935 163.442 42.4157 163.723 42.2796V41.6866C163.461 41.813 163.121 41.9053 162.746 41.9053C162.183 41.9053 161.643 41.672 161.565 41.1227H163.884C164.083 40.2283 163.66 39.2416 162.43 39.2416C161.721 39.2464 160.875 39.752 160.875 40.87ZM163.271 40.6123H161.56C161.585 40.0922 162.003 39.8152 162.465 39.8152C163.145 39.82 163.31 40.345 163.271 40.6123ZM164.385 40.8991C164.385 41.9977 165.225 42.4984 166.047 42.4984C166.441 42.4984 166.771 42.4255 167.068 42.2845V41.6477C166.825 41.7887 166.494 41.8859 166.168 41.8859C165.614 41.8859 165.085 41.5699 165.085 40.87C165.085 40.1457 165.639 39.8541 166.183 39.8541C166.499 39.8541 166.815 39.9513 167.039 40.1117V39.4798C166.766 39.3194 166.436 39.2416 166.086 39.2416C165.264 39.2464 164.385 39.7471 164.385 40.8991ZM169.187 42.4109V39.9318H170.247V39.3291H167.432V39.9318H168.497V42.4109H169.187ZM172.599 42.4109C173.314 42.4109 173.615 42.0366 173.615 41.5651C173.615 41.1859 173.377 40.9429 173.09 40.8505C173.353 40.7339 173.528 40.4908 173.528 40.1506C173.528 39.6693 173.173 39.3291 172.551 39.3291H170.791V42.4109H172.599ZM171.477 41.1033H172.449C172.687 41.1033 172.925 41.1859 172.925 41.5019C172.925 41.7984 172.721 41.8956 172.439 41.8956H171.481V41.1033H171.477ZM171.477 39.8492H172.395C172.609 39.8492 172.833 39.9415 172.833 40.2429C172.833 40.52 172.638 40.6172 172.395 40.6172H171.477V39.8492ZM176.935 41.7012V40.5978C176.935 39.6645 176.381 39.2464 175.511 39.2464C175.015 39.2464 174.573 39.368 174.33 39.4506V40.0825C174.607 39.961 174.986 39.8443 175.443 39.8443C175.968 39.8443 176.255 40.1165 176.255 40.5005V40.6075C176.012 40.554 175.715 40.5151 175.453 40.5151C174.811 40.5151 174.077 40.7582 174.077 41.5505C174.077 42.1873 174.597 42.4935 175.156 42.4935C175.637 42.4935 176.017 42.338 176.318 42.0949C176.425 42.3477 176.653 42.4546 176.935 42.4546C177.091 42.4546 177.242 42.4303 177.373 42.3768V41.881C177.31 41.9005 177.237 41.9199 177.169 41.9199C177.037 41.9248 176.935 41.8713 176.935 41.7012ZM175.579 41.0012C175.798 41.0012 176.06 41.0401 176.245 41.079V41.5991C176.002 41.8421 175.681 41.9637 175.351 41.9637C175.044 41.9637 174.772 41.8081 174.772 41.5067C174.777 41.1227 175.19 41.0012 175.579 41.0012Z" fill="white"/>
<path d="M22.0634 38.7944C24.4161 38.7944 26.3799 38.0216 27.9596 36.4807H28.0763L28.8492 38.3327H32.5872V19.8274H28.8492L28.0763 21.6793H27.9596C26.3799 20.1385 24.4112 19.3656 22.0634 19.3656C19.4434 19.3656 17.2852 20.2503 15.6276 22.0634C13.9701 23.8765 13.1583 26.1902 13.1583 29.0776C13.1583 34.7891 16.8185 38.7944 22.0634 38.7944ZM22.987 33.3211C20.6732 33.3211 19.1323 31.5858 19.1323 29.0824C19.1323 26.6131 20.6732 24.8438 22.987 24.8438C25.2619 24.8438 26.7639 26.6958 26.7639 28.854V29.3158C26.7639 31.474 25.2619 33.3211 22.987 33.3211ZM45.7698 38.7944C48.6232 38.7944 50.9758 37.8709 52.784 35.98C54.5971 34.0891 55.5207 31.8142 55.5207 29.0776C55.5207 26.3409 54.5971 24.066 52.784 22.1752C50.9709 20.2843 48.6183 19.3607 45.7309 19.3607C42.8776 19.3607 40.525 20.2843 38.7167 22.1752C36.9036 24.066 35.9801 26.3409 35.9801 29.0776C35.8634 34.3613 40.0632 38.8722 45.7698 38.7944ZM45.7698 33.2044C43.5727 33.2044 41.9541 31.4302 41.9541 29.0776C41.9541 26.7249 43.5727 24.9507 45.7698 24.9507C47.9669 24.9507 49.5856 26.7249 49.5856 29.0776C49.5856 31.4351 47.9669 33.2044 45.7698 33.2044ZM76.7627 20.0218H60.9552V24.7271C60.9552 27.1187 60.9163 28.8929 60.7996 30.0838C60.6829 31.2795 60.4156 32.3975 59.9878 33.4767H56.9061V42.688H61.7621V38.3327H73.4427V42.688H78.2987V33.4767H76.7578V20.0218H76.7627ZM71.0998 24.9167V33.4767H65.7042C66.166 31.9747 66.4382 29.9282 66.4771 28.3484C66.516 27.5367 66.516 26.4187 66.516 24.9167H71.0998ZM93.5326 26.652H88.0982V19.8274H82.0853V38.3327H88.0982V31.508H93.5326V38.3327H99.5844V19.8274H93.5326V26.652ZM102.554 19.8274V24.9167H107.683V38.3327H113.734V24.9167H118.901V19.8274H102.554Z" fill="white"/>
</svg>
